<svg xmlns="http://www.w3.org/2000/svg" width="64" height="64" shape-rendering="geometricPrecision" text-rendering="geometricPrecision" image-rendering="optimizeQuality" fill-rule="evenodd" clip-rule="evenodd" viewBox="0 0 640 640"><path d="M556.53 509.676c26.22 34.996 48.804 64.087 61.04 97.49 11.918 32.598 16.748 47.433-10.3 13.677-25.204-31.453-48.767-62.044-83.209-91.064-2.433.555-5.008 1.11-7.772 1.665C204.616 593.382-22.44 453.184 17.444-.011 257.541 83.128 597.538 49.348 562.376 475.27c-1.299 15.839-2.515 26.646-5.846 34.406zm-83.647-68.091C394.563 272.85 193.277 214.964 93.461 99.569c108.403 211.36 167.53 202.03 379.422 342.016z"/></svg>